<svg width="1080" height="1350" viewBox="0 0 1080 1350" fill="none" xmlns="http://www.w3.org/2000/svg">
<g clip-path="url(#clip0_48_14658)">
<rect width="1080" height="1350" fill="white"/>
<g opacity="0.1">
<g clip-path="url(#clip1_48_14658)">
<path d="M900.035 548.415L887.392 551.802L918.865 569.974" stroke="black" stroke-width="2.7" stroke-linecap="round" stroke-linejoin="round"/>
<path d="M964.67 555.487C962.799 548.505 955.622 544.361 948.639 546.232C941.657 548.103 937.513 555.28 939.384 562.263C941.255 569.245 948.432 573.389 955.415 571.518C962.397 569.647 966.541 562.47 964.67 555.487Z" stroke="black" stroke-width="2.7" stroke-linecap="round" stroke-linejoin="round"/>
<path d="M938.478 600.855C936.607 593.872 929.429 589.728 922.447 591.599C915.464 593.47 911.32 600.648 913.191 607.63C915.062 614.613 922.24 618.756 929.222 616.885C936.205 615.015 940.348 607.837 938.478 600.855Z" stroke="black" stroke-width="2.7" stroke-linecap="round" stroke-linejoin="round"/>
<path d="M951.601 578.186C949.73 571.203 942.552 567.06 935.57 568.931C928.587 570.802 924.443 577.979 926.314 584.961C928.185 591.944 935.363 596.088 942.345 594.217C949.328 592.346 953.472 585.169 951.601 578.186Z" stroke="black" stroke-width="2.7" stroke-linecap="round" stroke-linejoin="round"/>
<path d="M925.395 578.162C923.525 571.179 916.347 567.035 909.365 568.906C902.382 570.777 898.238 577.954 900.109 584.937C901.98 591.92 909.158 596.063 916.14 594.192C923.123 592.321 927.266 585.144 925.395 578.162Z" stroke="black" stroke-width="2.7" stroke-linecap="round" stroke-linejoin="round"/>
<path d="M938.477 555.505C936.606 548.522 929.428 544.378 922.446 546.249C915.463 548.12 911.319 555.297 913.19 562.28C915.061 569.263 922.239 573.406 929.221 571.535C936.204 569.664 940.348 562.487 938.477 555.505Z" stroke="black" stroke-width="2.7" stroke-linecap="round" stroke-linejoin="round"/>
<path d="M964.671 600.837C962.8 593.854 955.623 589.711 948.64 591.582C941.658 593.453 937.514 600.63 939.385 607.612C941.256 614.595 948.433 618.739 955.416 616.868C962.398 614.997 966.542 607.819 964.671 600.837Z" stroke="black" stroke-width="2.7" stroke-linecap="round" stroke-linejoin="round"/>
<path d="M977.752 578.18C975.881 571.198 968.704 567.054 961.721 568.925C954.739 570.796 950.595 577.973 952.466 584.956C954.337 591.938 961.514 596.082 968.497 594.211C975.479 592.34 979.623 585.163 977.752 578.18Z" stroke="black" stroke-width="2.7" stroke-linecap="round" stroke-linejoin="round"/>
<path d="M990.875 600.862C989.004 593.879 981.827 589.736 974.845 591.606C967.862 593.477 963.718 600.655 965.589 607.637C967.46 614.62 974.638 618.764 981.62 616.893C988.603 615.022 992.746 607.844 990.875 600.862Z" stroke="black" stroke-width="2.7" stroke-linecap="round" stroke-linejoin="round"/>
</g>
<path d="M924.554 370.202L915.52 336.487M907.394 356.732L920.037 353.345M885.64 393.547C883.614 394.791 881.326 395.545 878.958 395.749C876.589 395.952 874.206 395.6 871.997 394.72C869.789 393.84 867.817 392.457 866.237 390.68C864.658 388.903 863.515 386.783 862.9 384.486C862.284 382.19 862.214 379.782 862.693 377.454C863.173 375.125 864.189 372.941 865.662 371.075C867.134 369.209 869.022 367.712 871.175 366.704C873.328 365.696 875.687 365.205 878.063 365.269M903.18 357.862C897.534 336.79 882.809 327.184 868.86 330.922L886.927 398.352C900.877 394.614 908.826 378.933 903.18 357.862Z" stroke="black" stroke-width="2.7" stroke-linecap="round" stroke-linejoin="round"/>
<path d="M877.735 364.047C875.71 365.291 873.421 366.045 871.053 366.248C868.684 366.452 866.301 366.1 864.093 365.22C861.884 364.34 859.912 362.956 858.333 361.18C856.753 359.403 855.61 357.282 854.995 354.986C854.38 352.69 854.309 350.282 854.789 347.953C855.268 345.625 856.285 343.441 857.757 341.575C859.23 339.708 861.117 338.212 863.27 337.204C865.423 336.196 867.782 335.705 870.158 335.769" stroke="black" stroke-width="2.7" stroke-linecap="round" stroke-linejoin="round"/>
<path d="M854.977 354.968C853.04 355.487 851.224 356.383 849.633 357.603C848.042 358.824 846.707 360.346 845.705 362.083C844.702 363.82 844.051 365.737 843.789 367.725C843.528 369.713 843.66 371.734 844.179 373.671C844.698 375.608 845.594 377.424 846.814 379.014C848.035 380.605 849.557 381.94 851.294 382.943C853.031 383.946 854.948 384.597 856.936 384.858C858.924 385.12 860.945 384.988 862.882 384.469" stroke="black" stroke-width="2.7" stroke-linecap="round" stroke-linejoin="round"/>
<g clip-path="url(#clip2_48_14658)">
<path d="M1038.32 86.7682L1046.75 84.5098" stroke="black" stroke-width="2.7" stroke-linecap="round" stroke-linejoin="round"/>
<path d="M1005.13 64.043L988.272 68.5599C981.71 70.3187 975.922 74.2133 971.822 79.6286C967.721 85.0438 965.542 91.671 965.628 98.4631C965.655 100.317 965.303 102.173 964.377 103.776L962.461 107.094L965.78 109.01C967.383 109.936 968.615 111.367 969.519 112.986C972.84 118.911 978.041 123.561 984.3 126.201C990.559 128.84 997.519 129.319 1004.08 127.561L1020.94 123.044" stroke="black" stroke-width="2.7" stroke-linecap="round" stroke-linejoin="round"/>
<path d="M1038.32 86.7683C1033.8 69.9109 1021.42 57.4191 1012.43 57.5704C1008.07 57.6417 1003.16 55.9017 997.526 52.5294C999.351 57.9576 1000.98 60.5126 1005.13 64.0432C1001.86 67.3578 1000.52 69.7129 998.958 74.7304C1003.32 80.119 1005.79 81.7253 1010.21 83.0078C1006.69 86.6389 1005.5 89.4699 1004.6 95.8021C1008.7 100.622 1011.17 102.455 1015.86 104.08C1012.45 107.834 1011.17 110.583 1010.25 116.874C1013.93 121.35 1016.22 122.862 1020.94 123.044C1018.24 128.428 1017.96 131.443 1020.11 136.816C1023.01 130.18 1026.68 127.115 1030.5 125C1038.36 120.634 1042.84 103.626 1038.32 86.7683Z" stroke="black" stroke-width="2.7" stroke-linecap="round" stroke-linejoin="round"/>
</g>
<g clip-path="url(#clip3_48_14658)">
<path d="M789.673 153.396L781.245 155.655" stroke="black" stroke-width="2.7" stroke-linecap="round" stroke-linejoin="round"/>
<path d="M822.864 176.122L839.722 171.605C846.283 169.846 852.071 165.951 856.171 160.536C860.272 155.121 862.451 148.494 862.366 141.701C862.339 139.848 862.69 137.992 863.616 136.389L865.532 133.07L862.213 131.154C860.61 130.229 859.378 128.798 858.474 127.179C855.153 121.253 849.952 116.603 843.693 113.964C837.434 111.324 830.474 110.846 823.912 112.604L807.055 117.121" stroke="black" stroke-width="2.7" stroke-linecap="round" stroke-linejoin="round"/>
<path d="M789.674 153.396C794.19 170.254 806.571 182.745 815.565 182.594C819.927 182.523 824.829 184.263 830.466 187.635C828.641 182.207 827.017 179.652 822.864 176.121C826.132 172.807 827.47 170.452 829.034 165.434C824.668 160.046 822.201 158.439 817.783 157.157C821.304 153.526 822.497 150.695 823.388 144.362C819.292 139.543 816.827 137.71 812.137 136.085C815.544 132.331 816.821 129.581 817.742 123.291C814.067 118.814 811.77 117.303 807.055 117.12C809.75 111.737 810.03 108.721 807.882 103.348C804.98 109.984 801.312 113.049 797.497 115.165C789.633 119.53 785.157 136.539 789.674 153.396Z" stroke="black" stroke-width="2.7" stroke-linecap="round" stroke-linejoin="round"/>
</g>
<g clip-path="url(#clip4_48_14658)">
<path d="M1045.9 317.36C1048.09 325.507 1056.46 330.341 1064.61 328.158C1072.75 325.976 1077.59 317.602 1075.4 309.456C1073.22 301.309 1064.85 296.475 1056.7 298.658C1048.55 300.841 1043.72 309.214 1045.9 317.36Z" stroke="black" stroke-width="2.7" stroke-linecap="round" stroke-linejoin="round"/>
<path d="M1070.02 272.505C1084.77 268.553 1098.13 276.266 1102.65 293.123C1108.29 314.195 1095.46 316.866 1090.04 330.377C1084.63 343.888 1087.26 353.707 1070.4 358.224C1051.44 363.306 1040.19 355.028 1035.1 336.064C1032.28 325.528 1021.75 328.351 1017.79 313.601C1013.84 298.85 1018.32 281.842 1033.07 277.889C1045.71 274.502 1047.4 280.823 1055.83 278.565C1062.15 276.871 1065.8 273.635 1070.02 272.505Z" stroke="black" stroke-width="2.7" stroke-linecap="round" stroke-linejoin="round"/>
</g>
<g clip-path="url(#clip5_48_14658)">
<path d="M1089.68 497.599C1084.09 499.097 1079.33 502.753 1076.43 507.764C1073.54 512.774 1072.76 518.729 1074.26 524.317C1075.75 529.906 1079.41 534.671 1084.42 537.564C1089.43 540.456 1095.38 541.24 1100.97 539.743C1112.6 536.626 1119.22 523.561 1107.97 515.283C1113.58 502.489 1101.31 494.483 1089.68 497.599Z" stroke="black" stroke-width="2.7" stroke-linecap="round" stroke-linejoin="round"/>
<path d="M1100.97 539.743C1095.38 541.24 1090.62 544.896 1087.73 549.907C1084.83 554.917 1084.05 560.872 1085.55 566.461C1087.04 572.049 1090.7 576.814 1095.71 579.707C1100.72 582.6 1106.68 583.384 1112.27 581.886C1123.9 578.77 1130.51 565.704 1119.26 557.427C1124.87 544.632 1112.6 536.626 1100.97 539.743Z" stroke="black" stroke-width="2.7" stroke-linecap="round" stroke-linejoin="round"/>
</g>
<g clip-path="url(#clip6_48_14658)">
<path d="M752.009 619.697L751.998 619.655" stroke="black" stroke-width="2.7" stroke-linecap="round" stroke-linejoin="round"/>
<path d="M773.384 632.038L773.373 631.996" stroke="black" stroke-width="2.7" stroke-linecap="round" stroke-linejoin="round"/>
<path d="M771.952 609.837L771.94 609.795" stroke="black" stroke-width="2.7" stroke-linecap="round" stroke-linejoin="round"/>
<path d="M787.761 668.837L790.463 577.775L712.951 625.646C720.538 638.789 731.453 649.687 744.556 657.287C757.7 664.849 772.597 668.831 787.761 668.837Z" stroke="black" stroke-width="2.7" stroke-linecap="round" stroke-linejoin="round"/>
<path d="M728.679 616.915C741.977 641.763 760.947 650.863 787.458 650.851" stroke="black" stroke-width="2.7" stroke-linecap="round" stroke-linejoin="round"/>
</g>
<g clip-path="url(#clip7_48_14658)">
<path d="M744.466 422.974L733.174 380.83" stroke="black" stroke-width="2.7" stroke-linecap="round" stroke-linejoin="round"/>
<path d="M738.82 401.902C736.124 391.843 729.543 383.266 720.524 378.059C711.505 372.852 700.787 371.441 690.728 374.136L711.054 449.994C721.113 447.299 729.69 440.718 734.897 431.699C740.104 422.68 741.515 411.962 738.82 401.902Z" stroke="black" stroke-width="2.7" stroke-linecap="round" stroke-linejoin="round"/>
<path d="M701.591 414.678C702.299 417.224 702.018 419.944 700.804 422.291C699.591 424.638 697.535 426.44 695.048 427.335C692.562 428.23 689.829 428.152 687.398 427.116C684.967 426.08 683.017 424.163 681.94 421.75C680.262 422.632 678.377 423.043 676.484 422.937C674.591 422.831 672.763 422.214 671.194 421.151C669.625 420.088 668.373 418.618 667.574 416.9C666.774 415.181 666.456 413.278 666.653 411.392C665.274 410.96 663.999 410.246 662.91 409.296C661.82 408.347 660.938 407.182 660.321 405.875C659.704 404.568 659.363 403.148 659.322 401.703C659.28 400.258 659.538 398.82 660.079 397.48C658.029 395.945 656.613 393.711 656.099 391.202C655.585 388.692 656.008 386.082 657.289 383.863C658.569 381.645 660.619 379.973 663.049 379.164C665.479 378.355 668.121 378.465 670.476 379.472C671.485 378.182 672.783 377.146 674.265 376.449C675.747 375.751 677.372 375.411 679.009 375.455C680.647 375.5 682.251 375.928 683.693 376.705C685.135 377.482 686.374 378.587 687.312 379.93C688.725 379.139 690.297 378.671 691.913 378.561" stroke="black" stroke-width="2.7" stroke-linecap="round" stroke-linejoin="round"/>
<path d="M699.761 407.851L678.387 395.51" stroke="black" stroke-width="2.7" stroke-linecap="round" stroke-linejoin="round"/>
<path d="M682.114 422.064C680.27 425.036 679.363 428.495 679.512 431.99C679.662 435.485 680.861 438.853 682.953 441.657C685.045 444.46 687.933 446.569 691.24 447.707C694.548 448.845 698.121 448.96 701.496 448.038C704.572 447.214 707.212 445.603 709.315 443.504" stroke="black" stroke-width="2.7" stroke-linecap="round" stroke-linejoin="round"/>
</g>
<g clip-path="url(#clip8_48_14658)">
<path d="M600.027 204.211C602.26 212.546 606.915 220.032 613.403 225.721C619.891 231.411 627.92 235.049 636.476 236.175C645.031 237.302 653.728 235.866 661.468 232.049C669.207 228.233 675.641 222.207 679.955 214.733C684.27 207.26 686.272 198.676 685.707 190.065C685.143 181.454 682.038 173.204 676.785 166.358C671.532 159.512 664.366 154.377 656.195 151.604C648.024 148.83 639.213 148.541 630.878 150.775C632.565 153.462 633.487 156.558 633.546 159.731C633.604 162.903 632.797 166.031 631.21 168.779C629.624 171.526 627.319 173.79 624.542 175.325C621.766 176.86 618.623 177.61 615.453 177.493C617.139 180.18 618.061 183.276 618.12 186.449C618.179 189.621 617.371 192.749 615.785 195.497C614.198 198.244 611.893 200.507 609.117 202.043C606.34 203.578 603.198 204.328 600.027 204.211Z" stroke="black" stroke-width="2.7" stroke-linecap="round" stroke-linejoin="round"/>
<path d="M631.373 211.621L631.414 211.61" stroke="black" stroke-width="2.7" stroke-linecap="round" stroke-linejoin="round"/>
<path d="M652.404 172.109L652.446 172.097" stroke="black" stroke-width="2.7" stroke-linecap="round" stroke-linejoin="round"/>
<path d="M642.17 192.918L642.212 192.907" stroke="black" stroke-width="2.7" stroke-linecap="round" stroke-linejoin="round"/>
<path d="M664.372 191.487L664.413 191.476" stroke="black" stroke-width="2.7" stroke-linecap="round" stroke-linejoin="round"/>
<path d="M656.245 211.732L656.287 211.721" stroke="black" stroke-width="2.7" stroke-linecap="round" stroke-linejoin="round"/>
</g>
<g clip-path="url(#clip9_48_14658)">
<path d="M596.484 3.70242L576.418 -17.0738C569.859 -23.8533 578.51 -39.2706 587.864 -36.8985L615.985 -29.8892C634.096 -25.3466 609.721 17.3651 596.484 3.70242Z" stroke="black" stroke-width="2.7" stroke-linecap="round" stroke-linejoin="round"/>
<path d="M574.608 -17.0861L566.087 -10.2858C563.349 -8.19712 561.778 -5.96935 562.681 -2.59787L566.633 12.1524C568.564 19.3589 571.564 22.1236 579.992 19.8652C587.457 17.4862 593.858 12.5762 598.089 5.98226" stroke="black" stroke-width="2.7" stroke-linecap="round" stroke-linejoin="round"/>
<path d="M562.681 -2.59796C556.149 -0.847648 545.553 0.907526 548.082 10.3477C550.341 18.7764 560.05 18.4331 567.763 16.3666" stroke="black" stroke-width="2.7" stroke-linecap="round" stroke-linejoin="round"/>
</g>
<g clip-path="url(#clip10_48_14658)">
<path d="M175.167 742.643L162.524 746.031L193.998 764.202" stroke="black" stroke-width="2.7" stroke-linecap="round" stroke-linejoin="round"/>
<path d="M239.802 749.715C237.931 742.733 230.754 738.589 223.771 740.46C216.789 742.331 212.645 749.508 214.516 756.491C216.387 763.473 223.564 767.617 230.547 765.746C237.529 763.875 241.673 756.698 239.802 749.715Z" stroke="black" stroke-width="2.7" stroke-linecap="round" stroke-linejoin="round"/>
<path d="M213.61 795.083C211.739 788.1 204.562 783.956 197.579 785.827C190.597 787.698 186.453 794.876 188.324 801.858C190.195 808.841 197.372 812.984 204.354 811.114C211.337 809.243 215.481 802.065 213.61 795.083Z" stroke="black" stroke-width="2.7" stroke-linecap="round" stroke-linejoin="round"/>
<path d="M226.733 772.414C224.862 765.432 217.685 761.288 210.702 763.159C203.72 765.03 199.576 772.207 201.447 779.19C203.318 786.172 210.495 790.316 217.478 788.445C224.46 786.574 228.604 779.397 226.733 772.414Z" stroke="black" stroke-width="2.7" stroke-linecap="round" stroke-linejoin="round"/>
<path d="M200.528 772.39C198.657 765.407 191.48 761.264 184.497 763.135C177.514 765.006 173.371 772.183 175.242 779.165C177.113 786.148 184.29 790.292 191.272 788.421C198.255 786.55 202.399 779.372 200.528 772.39Z" stroke="black" stroke-width="2.7" stroke-linecap="round" stroke-linejoin="round"/>
<path d="M213.609 749.733C211.738 742.75 204.561 738.606 197.578 740.477C190.596 742.348 186.452 749.526 188.323 756.508C190.194 763.491 197.371 767.634 204.354 765.763C211.336 763.892 215.48 756.715 213.609 749.733Z" stroke="black" stroke-width="2.7" stroke-linecap="round" stroke-linejoin="round"/>
<path d="M239.803 795.065C237.932 788.082 230.755 783.939 223.772 785.81C216.79 787.681 212.646 794.858 214.517 801.84C216.388 808.823 223.565 812.967 230.548 811.096C237.53 809.225 241.674 802.048 239.803 795.065Z" stroke="black" stroke-width="2.7" stroke-linecap="round" stroke-linejoin="round"/>
<path d="M252.884 772.408C251.013 765.426 243.836 761.282 236.854 763.153C229.871 765.024 225.727 772.201 227.598 779.184C229.469 786.166 236.646 790.31 243.629 788.439C250.611 786.568 254.755 779.391 252.884 772.408Z" stroke="black" stroke-width="2.7" stroke-linecap="round" stroke-linejoin="round"/>
<path d="M266.008 795.09C264.137 788.108 256.96 783.964 249.977 785.835C242.994 787.706 238.851 794.883 240.722 801.865C242.593 808.848 249.77 812.992 256.752 811.121C263.735 809.25 267.879 802.073 266.008 795.09Z" stroke="black" stroke-width="2.7" stroke-linecap="round" stroke-linejoin="round"/>
</g>
<path d="M178.57 64.19L187.603 97.9048M195.729 77.6597L183.086 81.0474M217.483 40.8447C219.509 39.6008 221.797 38.8471 224.166 38.6435C226.534 38.4399 228.918 38.7921 231.126 39.6721C233.334 40.552 235.307 41.9353 236.886 43.712C238.466 45.4886 239.609 47.6095 240.224 49.9057C240.839 52.2019 240.91 54.61 240.43 56.9383C239.951 59.2667 238.934 61.4509 237.462 63.3171C235.989 65.1833 234.101 66.68 231.948 67.6879C229.795 68.6959 227.437 69.1872 225.061 69.1229M199.944 76.5305C205.59 97.6022 220.314 107.208 234.264 103.47L216.196 36.0403C202.247 39.7781 194.298 55.4587 199.944 76.5305Z" stroke="black" stroke-width="2.7" stroke-linecap="round" stroke-linejoin="round"/>
<path d="M225.388 70.3447C227.414 69.1009 229.702 68.3472 232.071 68.1436C234.439 67.94 236.822 68.2922 239.031 69.1721C241.239 70.0521 243.212 71.4354 244.791 73.2121C246.37 74.9887 247.513 77.1095 248.129 79.4057C248.744 81.7019 248.815 84.1101 248.335 86.4384C247.855 88.7668 246.839 90.951 245.366 92.8172C243.894 94.6834 242.006 96.1801 239.853 97.188C237.7 98.1959 235.342 98.6873 232.965 98.623" stroke="black" stroke-width="2.7" stroke-linecap="round" stroke-linejoin="round"/>
<path d="M248.147 79.4237C250.084 78.9047 251.9 78.0092 253.491 76.7884C255.082 75.5676 256.417 74.0455 257.419 72.3088C258.422 70.5721 259.073 68.6549 259.335 66.6667C259.596 64.6785 259.464 62.6582 258.945 60.7212C258.426 58.7841 257.53 56.9683 256.31 55.3774C255.089 53.7864 253.567 52.4515 251.83 51.4488C250.093 50.4461 248.176 49.7953 246.188 49.5336C244.2 49.2718 242.179 49.4042 240.242 49.9233" stroke="black" stroke-width="2.7" stroke-linecap="round" stroke-linejoin="round"/>
<path d="M199.686 564.43L190.652 530.716M182.526 550.961L195.169 547.573M160.772 587.776C158.746 589.02 156.458 589.773 154.089 589.977C151.721 590.18 149.338 589.828 147.129 588.948C144.921 588.068 142.949 586.685 141.369 584.908C139.79 583.132 138.647 581.011 138.032 578.715C137.416 576.418 137.346 574.01 137.825 571.682C138.305 569.354 139.321 567.169 140.794 565.303C142.266 563.437 144.154 561.94 146.307 560.932C148.46 559.924 150.818 559.433 153.195 559.497M178.312 552.09C172.665 531.018 157.941 521.413 143.992 525.15L162.059 592.58C176.009 588.842 183.958 573.162 178.312 552.09Z" stroke="black" stroke-width="2.7" stroke-linecap="round" stroke-linejoin="round"/>
<path d="M152.867 558.276C150.841 559.519 148.553 560.273 146.185 560.477C143.816 560.68 141.433 560.328 139.225 559.448C137.016 558.568 135.044 557.185 133.464 555.408C131.885 553.632 130.742 551.511 130.127 549.215C129.512 546.918 129.441 544.51 129.92 542.182C130.4 539.854 131.416 537.669 132.889 535.803C134.361 533.937 136.249 532.44 138.402 531.432C140.555 530.424 142.914 529.933 145.29 529.997" stroke="black" stroke-width="2.7" stroke-linecap="round" stroke-linejoin="round"/>
<path d="M130.108 549.196C128.171 549.715 126.355 550.611 124.764 551.832C123.174 553.052 121.839 554.575 120.836 556.311C119.833 558.048 119.182 559.965 118.921 561.953C118.659 563.942 118.791 565.962 119.31 567.899C119.829 569.836 120.725 571.652 121.946 573.243C123.166 574.834 124.689 576.169 126.425 577.171C128.162 578.174 130.079 578.825 132.067 579.087C134.056 579.348 136.076 579.216 138.013 578.697" stroke="black" stroke-width="2.7" stroke-linecap="round" stroke-linejoin="round"/>
<g clip-path="url(#clip11_48_14658)">
<path d="M313.45 280.996L321.879 278.738" stroke="black" stroke-width="2.7" stroke-linecap="round" stroke-linejoin="round"/>
<path d="M280.259 258.271L263.402 262.788C256.841 264.546 251.053 268.441 246.952 273.856C242.852 279.272 240.672 285.899 240.758 292.691C240.785 294.545 240.433 296.401 239.508 298.004L237.592 301.322L240.91 303.238C242.513 304.163 243.746 305.595 244.649 307.214C247.97 313.139 253.171 317.789 259.43 320.429C265.69 323.068 272.65 323.547 279.211 321.789L296.069 317.272" stroke="black" stroke-width="2.7" stroke-linecap="round" stroke-linejoin="round"/>
<path d="M313.451 280.996C308.934 264.139 296.553 251.647 287.559 251.798C283.197 251.87 278.295 250.13 272.658 246.757C274.483 252.186 276.107 254.741 280.26 258.271C276.992 261.586 275.654 263.941 274.09 268.958C278.456 274.347 280.923 275.953 285.341 277.236C281.82 280.867 280.627 283.698 279.736 290.03C283.832 294.85 286.297 296.683 290.987 298.308C287.58 302.062 286.303 304.812 285.382 311.102C289.057 315.578 291.354 317.09 296.069 317.272C293.374 322.656 293.094 325.671 295.242 331.044C298.144 324.409 301.812 321.343 305.627 319.228C313.491 314.862 317.967 297.854 313.451 280.996Z" stroke="black" stroke-width="2.7" stroke-linecap="round" stroke-linejoin="round"/>
</g>
<g clip-path="url(#clip12_48_14658)">
<path d="M64.8042 347.625L56.3755 349.883" stroke="black" stroke-width="2.7" stroke-linecap="round" stroke-linejoin="round"/>
<path d="M97.9951 370.35L114.853 365.833C121.414 364.074 127.202 360.179 131.302 354.764C135.403 349.349 137.582 342.722 137.496 335.929C137.469 334.076 137.821 332.22 138.747 330.617L140.663 327.298L137.344 325.383C135.741 324.457 134.509 323.026 133.605 321.407C130.284 315.481 125.083 310.831 118.824 308.192C112.565 305.552 105.605 305.074 99.0433 306.832L82.1859 311.349" stroke="black" stroke-width="2.7" stroke-linecap="round" stroke-linejoin="round"/>
<path d="M64.8044 347.625C69.3213 364.482 81.7023 376.974 90.6956 376.822C95.0579 376.751 99.9598 378.491 105.597 381.863C103.772 376.435 102.148 373.88 97.9951 370.35C101.263 367.035 102.601 364.68 104.165 359.662C99.799 354.274 97.3314 352.668 92.9135 351.385C96.4349 347.754 97.6277 344.923 98.5192 338.591C94.4228 333.771 91.9578 331.938 87.2674 330.313C90.6745 326.559 91.9522 323.809 92.873 317.519C89.1983 313.043 86.9006 311.531 82.1858 311.349C84.8808 305.965 85.1613 302.949 83.0125 297.576C80.111 304.212 76.4426 307.278 72.6279 309.393C64.7638 313.758 60.2874 330.767 64.8044 347.625Z" stroke="black" stroke-width="2.7" stroke-linecap="round" stroke-linejoin="round"/>
</g>
<g clip-path="url(#clip13_48_14658)">
<path d="M321.034 511.588C323.217 519.734 331.591 524.569 339.737 522.386C347.883 520.203 352.718 511.83 350.535 503.683C348.352 495.537 339.979 490.703 331.832 492.885C323.686 495.068 318.852 503.442 321.034 511.588Z" stroke="black" stroke-width="2.7" stroke-linecap="round" stroke-linejoin="round"/>
<path d="M345.151 466.732C359.901 462.78 373.26 470.493 377.777 487.35C383.423 508.422 370.588 511.093 365.174 524.604C359.761 538.115 362.392 547.934 345.534 552.451C326.57 557.533 315.318 549.255 310.237 530.291C307.413 519.755 296.878 522.578 292.925 507.828C288.973 493.077 293.449 476.069 308.2 472.116C320.843 468.729 322.536 475.05 330.965 472.792C337.287 471.098 340.936 467.861 345.151 466.732Z" stroke="black" stroke-width="2.7" stroke-linecap="round" stroke-linejoin="round"/>
</g>
<g clip-path="url(#clip14_48_14658)">
<path d="M57.221 117.031C55.0382 108.885 46.6648 104.051 38.5185 106.234C30.3721 108.416 25.5377 116.79 27.7205 124.936C29.9033 133.082 38.2768 137.917 46.4231 135.734C54.5694 133.551 59.4038 125.178 57.221 117.031Z" stroke="black" stroke-width="2.7" stroke-linecap="round" stroke-linejoin="round"/>
<path d="M33.1046 161.887C18.3544 165.839 4.99544 158.126 0.478515 141.269C-5.16764 120.197 7.66738 117.526 13.081 104.015C18.4947 90.5045 15.8636 80.6851 32.721 76.1682C51.6855 71.0866 62.9373 79.364 68.0189 98.3286C70.8419 108.864 81.3778 106.041 85.3301 120.792C89.2824 135.542 84.8061 152.551 70.0558 156.503C57.4128 159.891 55.7189 153.569 47.2902 155.827C40.9687 157.521 37.319 160.758 33.1046 161.887Z" stroke="black" stroke-width="2.7" stroke-linecap="round" stroke-linejoin="round"/>
</g>
<g clip-path="url(#clip15_48_14658)">
<path d="M364.812 691.828C359.224 693.325 354.459 696.982 351.566 701.992C348.673 707.003 347.889 712.957 349.387 718.546C350.884 724.134 354.54 728.899 359.551 731.792C364.562 734.685 370.516 735.469 376.105 733.971C387.736 730.855 394.353 717.789 383.102 709.512C388.707 696.718 376.444 688.711 364.812 691.828Z" stroke="black" stroke-width="2.7" stroke-linecap="round" stroke-linejoin="round"/>
<path d="M376.105 733.971C370.516 735.469 365.751 739.125 362.859 744.135C359.966 749.146 359.182 755.101 360.679 760.689C362.177 766.278 365.833 771.043 370.843 773.935C375.854 776.828 381.809 777.612 387.397 776.115C399.029 772.998 405.646 759.933 394.394 751.655C400 738.861 387.736 730.855 376.105 733.971Z" stroke="black" stroke-width="2.7" stroke-linecap="round" stroke-linejoin="round"/>
<path d="M383.102 709.511C399.002 719.796 424.822 717.71 439.32 717.032C431.164 726.716 406.969 748.014 394.394 751.655" stroke="black" stroke-width="2.7" stroke-linecap="round" stroke-linejoin="round"/>
<path d="M421.112 767.081C416.267 749.001 422.868 734.359 439.32 717.033C445.768 741.097 430.931 764.45 421.112 767.081Z" stroke="black" stroke-width="2.7" stroke-linecap="round" stroke-linejoin="round"/>
</g>
<g clip-path="url(#clip16_48_14658)">
<path d="M27.1401 813.924L27.1289 813.882" stroke="black" stroke-width="2.7" stroke-linecap="round" stroke-linejoin="round"/>
<path d="M48.5146 826.265L48.5034 826.223" stroke="black" stroke-width="2.7" stroke-linecap="round" stroke-linejoin="round"/>
<path d="M47.083 804.063L47.0718 804.022" stroke="black" stroke-width="2.7" stroke-linecap="round" stroke-linejoin="round"/>
<path d="M62.892 863.065L65.5935 772.002L-11.9181 819.873C-4.331 833.017 6.58385 843.914 19.6869 851.515C32.8311 859.076 47.7282 863.058 62.892 863.065Z" stroke="black" stroke-width="2.7" stroke-linecap="round" stroke-linejoin="round"/>
<path d="M3.8099 811.142C17.1079 835.99 36.0782 845.091 62.5893 845.078" stroke="black" stroke-width="2.7" stroke-linecap="round" stroke-linejoin="round"/>
</g>
<g clip-path="url(#clip17_48_14658)">
<path d="M358.657 11.4172L369.95 53.5607" stroke="black" stroke-width="2.7" stroke-linecap="round" stroke-linejoin="round"/>
<path d="M364.303 32.489C366.999 42.5484 373.58 51.1251 382.599 56.3322C391.618 61.5394 402.336 62.9504 412.396 60.255L392.069 -15.6033C382.01 -12.9079 373.433 -6.32674 368.226 2.6923C363.019 11.7113 361.608 22.4295 364.303 32.489Z" stroke="black" stroke-width="2.7" stroke-linecap="round" stroke-linejoin="round"/>
<path d="M401.533 19.7129C400.825 17.1669 401.106 14.4475 402.319 12.1001C403.533 9.75267 405.589 7.95085 408.075 7.05601C410.562 6.16117 413.295 6.23949 415.726 7.27527C418.157 8.31104 420.106 10.2277 421.183 12.6407C422.861 11.7586 424.747 11.3485 426.639 11.4541C428.532 11.5596 430.36 12.177 431.93 13.2403C433.499 14.3035 434.75 15.7728 435.55 17.4914C436.35 19.21 436.668 21.1134 436.471 22.9987C437.85 23.4315 439.124 24.1452 440.214 25.0947C441.304 26.0443 442.185 27.2092 442.803 28.516C443.42 29.8229 443.76 31.2435 443.802 32.6883C443.843 34.1331 443.585 35.5708 443.044 36.9111C445.094 38.4466 446.51 40.6803 447.025 43.1895C447.539 45.6987 447.116 48.3094 445.835 50.5276C444.554 52.7459 442.505 54.4177 440.075 55.227C437.645 56.0362 435.002 55.9266 432.647 54.9189C431.638 56.2092 430.341 57.2448 428.859 57.9424C427.377 58.6401 425.752 58.9803 424.114 58.9358C422.477 58.8913 420.873 58.4633 419.431 57.6862C417.989 56.909 416.749 55.8045 415.812 54.4613C414.398 55.2523 412.826 55.7197 411.21 55.8299" stroke="black" stroke-width="2.7" stroke-linecap="round" stroke-linejoin="round"/>
<path d="M403.362 26.5404L424.736 38.8808" stroke="black" stroke-width="2.7" stroke-linecap="round" stroke-linejoin="round"/>
<path d="M421.009 12.3263C422.853 9.35438 423.76 5.89562 423.611 2.40085C423.461 -1.09392 422.262 -4.46261 420.17 -7.26611C418.079 -10.0696 415.191 -12.1779 411.883 -13.3161C408.575 -14.4544 405.002 -14.5698 401.627 -13.6473C398.551 -12.823 395.911 -11.2123 393.808 -9.11313" stroke="black" stroke-width="2.7" stroke-linecap="round" stroke-linejoin="round"/>
</g>
<g clip-path="url(#clip18_48_14658)">
<path d="M19.5977 617.201L8.30534 575.058" stroke="black" stroke-width="2.7" stroke-linecap="round" stroke-linejoin="round"/>
<path d="M13.9516 596.129C11.2562 586.07 4.67507 577.493 -4.34397 572.286C-13.363 567.079 -24.0812 565.668 -34.1406 568.363L-13.8145 644.221C-3.75502 641.526 4.82166 634.945 10.0288 625.926C15.236 616.907 16.647 606.189 13.9516 596.129Z" stroke="black" stroke-width="2.7" stroke-linecap="round" stroke-linejoin="round"/>
</g>
<g clip-path="url(#clip19_48_14658)">
<path d="M503.096 230.18C500.862 221.845 496.207 214.359 489.719 208.67C483.232 202.98 475.202 199.342 466.647 198.216C458.092 197.089 449.394 198.525 441.655 202.342C433.916 206.158 427.482 212.184 423.167 219.657C418.853 227.131 416.851 235.715 417.415 244.326C417.98 252.937 421.085 261.187 426.338 268.033C431.591 274.879 438.756 280.013 446.928 282.787C455.099 285.561 463.909 285.849 472.244 283.616C470.558 280.929 469.635 277.832 469.577 274.66C469.518 271.488 470.326 268.36 471.912 265.612C473.498 262.865 475.804 260.601 478.58 259.066C481.357 257.53 484.499 256.781 487.67 256.898C485.983 254.211 485.061 251.115 485.003 247.942C484.944 244.77 485.751 241.642 487.338 238.894C488.924 236.147 491.229 233.883 494.006 232.348C496.782 230.813 499.925 230.063 503.096 230.18Z" stroke="black" stroke-width="2.7" stroke-linecap="round" stroke-linejoin="round"/>
<path d="M471.75 222.769L471.708 222.78" stroke="black" stroke-width="2.7" stroke-linecap="round" stroke-linejoin="round"/>
<path d="M450.719 262.282L450.677 262.293" stroke="black" stroke-width="2.7" stroke-linecap="round" stroke-linejoin="round"/>
<path d="M460.952 241.472L460.91 241.484" stroke="black" stroke-width="2.7" stroke-linecap="round" stroke-linejoin="round"/>
<path d="M438.751 242.904L438.71 242.915" stroke="black" stroke-width="2.7" stroke-linecap="round" stroke-linejoin="round"/>
<path d="M446.877 222.658L446.836 222.67" stroke="black" stroke-width="2.7" stroke-linecap="round" stroke-linejoin="round"/>
</g>
<g clip-path="url(#clip20_48_14658)">
<path d="M506.639 430.69L526.706 451.466C533.265 458.246 524.613 473.663 515.26 471.291L487.138 464.281C469.028 459.739 493.403 417.027 506.639 430.69Z" stroke="black" stroke-width="2.7" stroke-linecap="round" stroke-linejoin="round"/>
<path d="M528.515 451.478L537.037 444.677C539.775 442.589 541.346 440.361 540.442 436.989L536.49 422.239C534.559 415.033 531.56 412.268 523.131 414.526C515.666 416.905 509.266 421.815 505.034 428.409" stroke="black" stroke-width="2.7" stroke-linecap="round" stroke-linejoin="round"/>
<path d="M540.442 436.99C546.975 435.239 557.571 433.484 555.041 424.044C552.783 415.615 543.073 415.958 535.361 418.025" stroke="black" stroke-width="2.7" stroke-linecap="round" stroke-linejoin="round"/>
<path d="M516.175 472.852L514.547 483.632C514.107 487.047 512.963 489.522 509.591 490.425L494.841 494.377C487.635 496.308 483.741 495.093 481.482 486.664C479.81 479.01 480.862 471.012 484.457 464.051" stroke="black" stroke-width="2.7" stroke-linecap="round" stroke-linejoin="round"/>
<path d="M509.592 490.425C511.342 496.957 515.12 507.011 505.68 509.541C497.251 511.799 492.693 503.219 490.627 495.506" stroke="black" stroke-width="2.7" stroke-linecap="round" stroke-linejoin="round"/>
</g>
<g clip-path="url(#clip21_48_14658)">
<path d="M567.961 698.146C562.816 689.904 561.756 680.386 566.16 672.882C573.141 660.668 591.566 658.125 607.18 667.176C622.837 676.215 629.836 693.401 622.802 705.585C618.452 713.119 609.721 716.949 599.98 716.668C600.548 710.192 596.383 702.907 589.009 698.649C581.635 694.392 573.285 694.416 567.961 698.146Z" stroke="black" stroke-width="2.7" stroke-linecap="round" stroke-linejoin="round"/>
<path d="M562.375 680.672L550.833 674.008C549.748 675.234 548.402 676.2 546.894 676.835C545.385 677.469 543.753 677.757 542.119 677.675C540.484 677.593 538.889 677.145 537.451 676.363C536.014 675.581 534.77 674.486 533.814 673.158C532.857 671.83 532.211 670.304 531.924 668.693C531.637 667.081 531.717 665.426 532.157 663.85C532.596 662.274 533.385 660.816 534.465 659.586C535.544 658.356 536.887 657.385 538.393 656.744C538.139 654.731 538.453 652.687 539.302 650.843C540.15 649 541.497 647.43 543.192 646.314C544.886 645.197 546.859 644.577 548.888 644.524C550.916 644.471 552.919 644.987 554.669 646.014C556.841 647.27 558.513 649.235 559.405 651.58C560.296 653.924 560.352 656.505 559.564 658.886L571.106 665.55" stroke="black" stroke-width="2.7" stroke-linecap="round" stroke-linejoin="round"/>
</g>
<g filter="url(#filter0_f_48_14658)">
<rect x="-476.619" y="-927.45" width="2160.56" height="1310.95" fill="white"/>
</g>
<g clip-path="url(#clip22_48_14658)">
<path d="M1081.01 1240.69L1072.58 1242.94" stroke="black" stroke-width="2.7" stroke-linecap="round" stroke-linejoin="round"/>
<path d="M1081.01 1240.69C1085.53 1257.54 1097.91 1270.03 1106.9 1269.88C1111.27 1269.81 1116.17 1271.55 1121.8 1274.92C1119.98 1269.5 1118.36 1266.94 1114.2 1263.41C1117.47 1260.1 1118.81 1257.74 1120.37 1252.72C1116.01 1247.33 1113.54 1245.73 1109.12 1244.45C1112.64 1240.81 1113.84 1237.98 1114.73 1231.65C1110.63 1226.83 1108.17 1225 1103.47 1223.37C1106.88 1219.62 1108.16 1216.87 1109.08 1210.58C1105.41 1206.1 1103.11 1204.59 1098.39 1204.41C1101.09 1199.03 1101.37 1196.01 1099.22 1190.64C1096.32 1197.27 1092.65 1200.34 1088.84 1202.45C1080.97 1206.82 1076.49 1223.83 1081.01 1240.69Z" stroke="black" stroke-width="2.7" stroke-linecap="round" stroke-linejoin="round"/>
</g>
<g clip-path="url(#clip23_48_14658)">
<path d="M1073.43 1010.1C1071.25 1001.95 1062.87 997.115 1054.73 999.298C1046.58 1001.48 1041.75 1009.85 1043.93 1018C1046.11 1026.15 1054.48 1030.98 1062.63 1028.8C1070.78 1026.62 1075.61 1018.24 1073.43 1010.1Z" stroke="black" stroke-width="2.7" stroke-linecap="round" stroke-linejoin="round"/>
<path d="M1049.31 1054.95C1034.56 1058.9 1021.2 1051.19 1016.69 1034.33C1011.04 1013.26 1023.87 1010.59 1029.29 997.079C1034.7 983.568 1032.07 973.749 1048.93 969.232C1067.89 964.151 1079.14 972.428 1084.23 991.393C1087.05 1001.93 1097.58 999.105 1101.54 1013.86C1105.49 1028.61 1101.01 1045.61 1086.26 1049.57C1073.62 1052.95 1071.93 1046.63 1063.5 1048.89C1057.18 1050.59 1053.53 1053.82 1049.31 1054.95Z" stroke="black" stroke-width="2.7" stroke-linecap="round" stroke-linejoin="round"/>
</g>
<g clip-path="url(#clip24_48_14658)">
<path d="M1029.65 829.857C1035.24 828.359 1040 824.703 1042.9 819.693C1045.79 814.682 1046.57 808.728 1045.08 803.139C1043.58 797.55 1039.92 792.786 1034.91 789.893C1029.9 787 1023.95 786.216 1018.36 787.713C1006.73 790.83 1000.11 803.895 1011.36 812.173C1005.76 824.967 1018.02 832.974 1029.65 829.857Z" stroke="black" stroke-width="2.7" stroke-linecap="round" stroke-linejoin="round"/>
<path d="M1018.36 787.714C1023.95 786.216 1028.71 782.56 1031.6 777.549C1034.5 772.539 1035.28 766.584 1033.78 760.996C1032.29 755.407 1028.63 750.642 1023.62 747.749C1018.61 744.857 1012.65 744.073 1007.07 745.57C995.434 748.687 988.817 761.752 1000.07 770.03C994.463 782.824 1006.73 790.83 1018.36 787.714Z" stroke="black" stroke-width="2.7" stroke-linecap="round" stroke-linejoin="round"/>
<path d="M1011.36 812.173C995.461 801.889 969.641 803.975 955.143 804.652C963.299 794.969 987.494 773.67 1000.07 770.03" stroke="black" stroke-width="2.7" stroke-linecap="round" stroke-linejoin="round"/>
<path d="M973.351 754.604C978.196 772.683 971.594 787.325 955.143 804.652C948.695 780.588 963.532 757.235 973.351 754.604Z" stroke="black" stroke-width="2.7" stroke-linecap="round" stroke-linejoin="round"/>
</g>
<g clip-path="url(#clip25_48_14658)">
<path d="M891.366 1291.5C893.6 1299.84 898.255 1307.32 904.743 1313.01C911.23 1318.7 919.26 1322.34 927.815 1323.46C936.37 1324.59 945.068 1323.16 952.807 1319.34C960.546 1315.52 966.98 1309.5 971.295 1302.02C975.609 1294.55 977.611 1285.96 977.047 1277.35C976.482 1268.74 973.377 1260.49 968.124 1253.65C962.871 1246.8 955.706 1241.67 947.534 1238.89C939.363 1236.12 930.553 1235.83 922.218 1238.06C923.904 1240.75 924.826 1243.85 924.885 1247.02C924.943 1250.19 924.136 1253.32 922.55 1256.07C920.963 1258.82 918.658 1261.08 915.882 1262.61C913.105 1264.15 909.963 1264.9 906.792 1264.78C908.479 1267.47 909.401 1270.57 909.459 1273.74C909.518 1276.91 908.711 1280.04 907.124 1282.79C905.538 1285.53 903.232 1287.8 900.456 1289.33C897.679 1290.87 894.537 1291.62 891.366 1291.5Z" stroke="black" stroke-width="2.7" stroke-linecap="round" stroke-linejoin="round"/>
<path d="M922.712 1298.91L922.754 1298.9" stroke="black" stroke-width="2.7" stroke-linecap="round" stroke-linejoin="round"/>
<path d="M943.743 1259.4L943.785 1259.39" stroke="black" stroke-width="2.7" stroke-linecap="round" stroke-linejoin="round"/>
<path d="M933.51 1280.21L933.552 1280.2" stroke="black" stroke-width="2.7" stroke-linecap="round" stroke-linejoin="round"/>
<path d="M955.71 1278.78L955.752 1278.76" stroke="black" stroke-width="2.7" stroke-linecap="round" stroke-linejoin="round"/>
<path d="M947.584 1299.02L947.626 1299.01" stroke="black" stroke-width="2.7" stroke-linecap="round" stroke-linejoin="round"/>
</g>
<g clip-path="url(#clip26_48_14658)">
<path d="M887.824 1091L867.757 1070.22C861.198 1063.44 869.85 1048.02 879.203 1050.39L907.325 1057.4C925.435 1061.95 901.06 1104.66 887.824 1091Z" stroke="black" stroke-width="2.7" stroke-linecap="round" stroke-linejoin="round"/>
<path d="M865.947 1070.21L857.426 1077.01C854.688 1079.1 853.117 1081.32 854.02 1084.7L857.972 1099.45C859.903 1106.65 862.903 1109.42 871.331 1107.16C878.796 1104.78 885.197 1099.87 889.428 1093.28" stroke="black" stroke-width="2.7" stroke-linecap="round" stroke-linejoin="round"/>
<path d="M854.02 1084.7C847.488 1086.45 836.892 1088.2 839.421 1097.64C841.68 1106.07 851.389 1105.73 859.102 1103.66" stroke="black" stroke-width="2.7" stroke-linecap="round" stroke-linejoin="round"/>
<path d="M878.288 1048.83L879.916 1038.05C880.356 1034.64 881.5 1032.16 884.871 1031.26L899.622 1027.31C906.828 1025.38 910.722 1026.59 912.981 1035.02C914.653 1042.67 913.601 1050.67 910.006 1057.63" stroke="black" stroke-width="2.7" stroke-linecap="round" stroke-linejoin="round"/>
<path d="M884.871 1031.26C883.121 1024.73 879.343 1014.67 888.783 1012.14C897.212 1009.89 901.769 1018.47 903.836 1026.18" stroke="black" stroke-width="2.7" stroke-linecap="round" stroke-linejoin="round"/>
</g>
<g clip-path="url(#clip27_48_14658)">
<path d="M826.502 823.537C831.647 831.78 832.706 841.297 828.303 848.801C821.322 861.015 802.897 863.558 787.283 854.508C771.626 845.468 764.627 828.282 771.661 816.099C776.011 808.564 784.741 804.734 794.483 805.015C793.914 811.491 798.08 818.776 805.454 823.034C812.828 827.291 821.178 827.267 826.502 823.537Z" stroke="black" stroke-width="2.7" stroke-linecap="round" stroke-linejoin="round"/>
<path d="M832.088 841.011L843.63 847.675C844.714 846.449 846.061 845.483 847.569 844.848C849.078 844.214 850.71 843.926 852.344 844.008C853.979 844.09 855.574 844.538 857.012 845.32C858.449 846.102 859.692 847.198 860.649 848.525C861.606 849.853 862.252 851.379 862.539 852.99C862.825 854.602 862.746 856.257 862.306 857.833C861.866 859.409 861.078 860.867 859.998 862.097C858.919 863.327 857.576 864.298 856.07 864.939C856.324 866.952 856.009 868.996 855.161 870.84C854.313 872.684 852.966 874.253 851.271 875.37C849.577 876.486 847.604 877.107 845.575 877.159C843.547 877.212 841.544 876.696 839.794 875.669C837.622 874.413 835.95 872.448 835.058 870.103C834.167 867.759 834.111 865.179 834.899 862.797L823.357 856.134" stroke="black" stroke-width="2.7" stroke-linecap="round" stroke-linejoin="round"/>
</g>
<g clip-path="url(#clip28_48_14658)">
<path d="M494.428 973.269L507.071 969.882L475.597 951.71" stroke="black" stroke-width="2.7" stroke-linecap="round" stroke-linejoin="round"/>
<path d="M429.793 966.197C431.664 973.179 438.841 977.323 445.824 975.452C452.806 973.581 456.95 966.404 455.079 959.421C453.208 952.439 446.031 948.295 439.048 950.166C432.066 952.037 427.922 959.214 429.793 966.197Z" stroke="black" stroke-width="2.7" stroke-linecap="round" stroke-linejoin="round"/>
<path d="M455.985 920.829C457.856 927.812 465.034 931.956 472.016 930.085C478.999 928.214 483.142 921.037 481.271 914.054C479.401 907.071 472.223 902.928 465.241 904.799C458.258 906.67 454.114 913.847 455.985 920.829Z" stroke="black" stroke-width="2.7" stroke-linecap="round" stroke-linejoin="round"/>
<path d="M442.862 943.498C444.733 950.48 451.911 954.624 458.893 952.753C465.876 950.882 470.019 943.705 468.148 936.722C466.277 929.74 459.1 925.596 452.118 927.467C445.135 929.338 440.991 936.515 442.862 943.498Z" stroke="black" stroke-width="2.7" stroke-linecap="round" stroke-linejoin="round"/>
<path d="M469.067 943.522C470.938 950.505 478.116 954.649 485.098 952.778C492.081 950.907 496.224 943.729 494.354 936.747C492.483 929.764 485.305 925.62 478.323 927.491C471.34 929.362 467.196 936.54 469.067 943.522Z" stroke="black" stroke-width="2.7" stroke-linecap="round" stroke-linejoin="round"/>
<path d="M455.986 966.179C457.857 973.162 465.035 977.306 472.017 975.435C479 973.564 483.143 966.387 481.272 959.404C479.401 952.421 472.224 948.278 465.242 950.149C458.259 952.02 454.115 959.197 455.986 966.179Z" stroke="black" stroke-width="2.7" stroke-linecap="round" stroke-linejoin="round"/>
<path d="M429.792 920.847C431.663 927.83 438.84 931.973 445.823 930.103C452.805 928.232 456.949 921.054 455.078 914.072C453.207 907.089 446.03 902.945 439.047 904.816C432.065 906.687 427.921 913.865 429.792 920.847Z" stroke="black" stroke-width="2.7" stroke-linecap="round" stroke-linejoin="round"/>
<path d="M416.711 943.504C418.582 950.486 425.759 954.63 432.742 952.759C439.724 950.888 443.868 943.711 441.997 936.728C440.126 929.746 432.949 925.602 425.966 927.473C418.984 929.344 414.84 936.521 416.711 943.504Z" stroke="black" stroke-width="2.7" stroke-linecap="round" stroke-linejoin="round"/>
<path d="M403.587 920.822C405.458 927.805 412.636 931.948 419.618 930.077C426.601 928.206 430.745 921.029 428.874 914.047C427.003 907.064 419.825 902.92 412.843 904.791C405.86 906.662 401.716 913.839 403.587 920.822Z" stroke="black" stroke-width="2.7" stroke-linecap="round" stroke-linejoin="round"/>
</g>
<path d="M469.909 1151.48L478.943 1185.2M487.069 1164.95L474.426 1168.34M508.823 1128.14C510.849 1126.89 513.137 1126.14 515.506 1125.94C517.874 1125.73 520.258 1126.08 522.466 1126.96C524.674 1127.84 526.647 1129.23 528.226 1131C529.806 1132.78 530.948 1134.9 531.564 1137.2C532.179 1139.49 532.25 1141.9 531.77 1144.23C531.291 1146.56 530.274 1148.74 528.802 1150.61C527.329 1152.48 525.441 1153.97 523.288 1154.98C521.135 1155.99 518.777 1156.48 516.4 1156.42M491.284 1163.82C496.93 1184.89 511.654 1194.5 525.604 1190.76L507.536 1123.33C493.586 1127.07 485.638 1142.75 491.284 1163.82Z" stroke="black" stroke-width="2.7" stroke-linecap="round" stroke-linejoin="round"/>
<path d="M516.728 1157.64C518.754 1156.39 521.042 1155.64 523.411 1155.44C525.779 1155.23 528.162 1155.58 530.371 1156.46C532.579 1157.34 534.551 1158.73 536.131 1160.5C537.71 1162.28 538.853 1164.4 539.468 1166.7C540.084 1168.99 540.154 1171.4 539.675 1173.73C539.195 1176.06 538.179 1178.24 536.706 1180.11C535.234 1181.98 533.346 1183.47 531.193 1184.48C529.04 1185.49 526.681 1185.98 524.305 1185.92" stroke="black" stroke-width="2.7" stroke-linecap="round" stroke-linejoin="round"/>
<path d="M539.487 1166.72C541.424 1166.2 543.24 1165.3 544.831 1164.08C546.422 1162.86 547.757 1161.34 548.759 1159.6C549.762 1157.86 550.413 1155.95 550.675 1153.96C550.936 1151.97 550.804 1149.95 550.285 1148.01C549.766 1146.08 548.87 1144.26 547.65 1142.67C546.429 1141.08 544.907 1139.74 543.17 1138.74C541.433 1137.74 539.516 1137.09 537.528 1136.83C535.54 1136.56 533.519 1136.7 531.582 1137.22" stroke="black" stroke-width="2.7" stroke-linecap="round" stroke-linejoin="round"/>
<g clip-path="url(#clip29_48_14658)">
<path d="M571.599 1345.56L554.742 1350.08C548.181 1351.84 542.393 1355.73 538.292 1361.15C534.191 1366.56 532.012 1373.19 532.098 1379.98C532.125 1381.84 531.773 1383.69 530.847 1385.3L528.932 1388.61L532.25 1390.53C533.853 1391.46 535.086 1392.89 535.989 1394.51C539.31 1400.43 544.511 1405.08 550.77 1407.72C557.029 1410.36 563.99 1410.84 570.551 1409.08L587.408 1404.56" stroke="black" stroke-width="2.7" stroke-linecap="round" stroke-linejoin="round"/>
<path d="M604.79 1368.29C600.273 1351.43 587.892 1338.94 578.899 1339.09C574.536 1339.16 569.634 1337.42 563.997 1334.05C565.822 1339.48 567.446 1342.03 571.599 1345.56C568.332 1348.88 566.993 1351.23 565.429 1356.25C569.795 1361.64 572.263 1363.25 576.681 1364.53C573.159 1368.16 571.967 1370.99 571.075 1377.32C575.171 1382.14 577.636 1383.97 582.327 1385.6C578.92 1389.35 577.642 1392.1 576.721 1398.39C580.396 1402.87 582.694 1404.38 587.408 1404.56C584.713 1409.95 584.433 1412.96 586.582 1418.34C589.483 1411.7 593.152 1408.64 596.966 1406.52C604.83 1402.15 609.307 1385.15 604.79 1368.29Z" stroke="black" stroke-width="2.7" stroke-linecap="round" stroke-linejoin="round"/>
</g>
<g clip-path="url(#clip30_48_14658)">
<path d="M348.56 1204.32C346.377 1196.18 338.004 1191.34 329.857 1193.53C321.711 1195.71 316.877 1204.08 319.059 1212.23C321.242 1220.37 329.616 1225.21 337.762 1223.03C345.908 1220.84 350.743 1212.47 348.56 1204.32Z" stroke="black" stroke-width="2.7" stroke-linecap="round" stroke-linejoin="round"/>
<path d="M324.444 1249.18C309.694 1253.13 296.335 1245.42 291.818 1228.56C286.172 1207.49 299.007 1204.82 304.42 1191.31C309.834 1177.8 307.203 1167.98 324.06 1163.46C343.025 1158.38 354.277 1166.66 359.358 1185.62C362.181 1196.16 372.717 1193.33 376.669 1208.08C380.622 1222.83 376.145 1239.84 361.395 1243.8C348.752 1247.18 347.058 1240.86 338.63 1243.12C332.308 1244.81 328.658 1248.05 324.444 1249.18Z" stroke="black" stroke-width="2.7" stroke-linecap="round" stroke-linejoin="round"/>
</g>
<g clip-path="url(#clip31_48_14658)">
<path d="M304.782 1024.08C310.371 1022.59 315.135 1018.93 318.028 1013.92C320.921 1008.91 321.705 1002.95 320.208 997.366C318.71 991.777 315.054 987.013 310.043 984.12C305.033 981.227 299.078 980.443 293.49 981.94C281.858 985.057 275.241 998.123 286.493 1006.4C280.887 1019.19 293.15 1027.2 304.782 1024.08Z" stroke="black" stroke-width="2.7" stroke-linecap="round" stroke-linejoin="round"/>
<path d="M293.489 981.941C299.078 980.443 303.843 976.787 306.736 971.776C309.629 966.766 310.412 960.811 308.915 955.223C307.418 949.634 303.761 944.869 298.751 941.976C293.74 939.084 287.786 938.3 282.197 939.797C270.566 942.914 263.948 955.979 275.2 964.257C269.595 977.051 281.858 985.057 293.489 981.941Z" stroke="black" stroke-width="2.7" stroke-linecap="round" stroke-linejoin="round"/>
<path d="M286.493 1006.4C270.593 996.116 244.773 998.202 230.274 998.879C238.43 989.196 262.625 967.897 275.2 964.257" stroke="black" stroke-width="2.7" stroke-linecap="round" stroke-linejoin="round"/>
<path d="M248.483 948.831C253.327 966.911 246.726 981.553 230.274 998.879C223.827 974.815 238.663 951.462 248.483 948.831Z" stroke="black" stroke-width="2.7" stroke-linecap="round" stroke-linejoin="round"/>
</g>
<g clip-path="url(#clip32_48_14658)">
<path d="M642.454 901.987L642.465 902.029" stroke="black" stroke-width="2.7" stroke-linecap="round" stroke-linejoin="round"/>
<path d="M621.08 889.646L621.091 889.688" stroke="black" stroke-width="2.7" stroke-linecap="round" stroke-linejoin="round"/>
<path d="M622.512 911.848L622.523 911.89" stroke="black" stroke-width="2.7" stroke-linecap="round" stroke-linejoin="round"/>
<path d="M606.702 852.847L604.001 943.909L681.512 896.038C673.925 882.894 663.01 871.997 649.907 864.396C636.763 856.835 621.866 852.853 606.702 852.847Z" stroke="black" stroke-width="2.7" stroke-linecap="round" stroke-linejoin="round"/>
<path d="M665.784 904.769C652.486 879.921 633.516 870.821 607.005 870.833" stroke="black" stroke-width="2.7" stroke-linecap="round" stroke-linejoin="round"/>
</g>
<g clip-path="url(#clip33_48_14658)">
<path d="M649.997 1098.71L661.289 1140.85" stroke="black" stroke-width="2.7" stroke-linecap="round" stroke-linejoin="round"/>
<path d="M655.643 1119.78C658.339 1129.84 664.92 1138.42 673.939 1143.63C682.958 1148.83 693.676 1150.24 703.735 1147.55L683.409 1071.69C673.35 1074.39 664.773 1080.97 659.566 1089.99C654.359 1099 652.948 1109.72 655.643 1119.78Z" stroke="black" stroke-width="2.7" stroke-linecap="round" stroke-linejoin="round"/>
<path d="M692.872 1107.01C692.165 1104.46 692.446 1101.74 693.659 1099.39C694.873 1097.05 696.929 1095.24 699.415 1094.35C701.902 1093.45 704.634 1093.53 707.065 1094.57C709.497 1095.6 711.446 1097.52 712.523 1099.93C714.201 1099.05 716.087 1098.64 717.979 1098.75C719.872 1098.85 721.7 1099.47 723.27 1100.53C724.839 1101.6 726.09 1103.07 726.89 1104.78C727.689 1106.5 728.008 1108.41 727.81 1110.29C729.19 1110.72 730.464 1111.44 731.554 1112.39C732.644 1113.34 733.525 1114.5 734.142 1115.81C734.76 1117.12 735.1 1118.54 735.142 1119.98C735.183 1121.43 734.925 1122.86 734.384 1124.2C736.434 1125.74 737.85 1127.97 738.364 1130.48C738.879 1132.99 738.456 1135.6 737.175 1137.82C735.894 1140.04 733.845 1141.71 731.415 1142.52C728.984 1143.33 726.342 1143.22 723.987 1142.21C722.978 1143.5 721.68 1144.54 720.198 1145.24C718.716 1145.93 717.091 1146.27 715.454 1146.23C713.817 1146.18 712.213 1145.76 710.771 1144.98C709.329 1144.2 708.089 1143.1 707.152 1141.75C705.738 1142.55 704.166 1143.01 702.55 1143.12" stroke="black" stroke-width="2.7" stroke-linecap="round" stroke-linejoin="round"/>
<path d="M694.702 1113.83L716.076 1126.17" stroke="black" stroke-width="2.7" stroke-linecap="round" stroke-linejoin="round"/>
<path d="M712.348 1099.62C714.193 1096.65 715.1 1093.19 714.951 1089.69C714.801 1086.2 713.602 1082.83 711.51 1080.03C709.418 1077.22 706.53 1075.12 703.223 1073.98C699.915 1072.84 696.341 1072.72 692.967 1073.65C689.891 1074.47 687.251 1076.08 685.148 1078.18" stroke="black" stroke-width="2.7" stroke-linecap="round" stroke-linejoin="round"/>
</g>
<g clip-path="url(#clip34_48_14658)">
<path d="M-31.9958 1301.23C-32.7035 1298.69 -32.4224 1295.97 -31.2089 1293.62C-29.9955 1291.27 -27.9393 1289.47 -25.4529 1288.58C-22.9665 1287.68 -20.2338 1287.76 -17.8027 1288.8C-15.3716 1289.83 -13.4221 1291.75 -12.345 1294.16C-10.6672 1293.28 -8.78148 1292.87 -6.88888 1292.98C-4.99627 1293.08 -3.16782 1293.7 -1.59856 1294.76C-0.0293038 1295.82 1.22191 1297.29 2.02161 1299.01C2.82131 1300.73 3.13951 1302.63 2.94226 1304.52C4.32134 1304.95 5.59587 1305.67 6.68562 1306.62C7.77537 1307.57 8.65673 1308.73 9.27421 1310.04C9.8917 1311.34 10.2319 1312.76 10.2735 1314.21C10.3151 1315.65 10.0571 1317.09 9.51573 1318.43C11.5658 1319.97 12.982 1322.2 13.4963 1324.71C14.0106 1327.22 13.5873 1329.83 12.3067 1332.05C11.026 1334.27 8.97664 1335.94 6.54644 1336.75C4.11625 1337.56 1.47374 1337.45 -0.881114 1336.44C-1.89015 1337.73 -3.1878 1338.77 -4.66979 1339.46C-6.15178 1340.16 -7.77677 1340.5 -9.41415 1340.46C-11.0515 1340.41 -12.6556 1339.98 -14.0975 1339.21C-15.5394 1338.43 -16.7789 1337.33 -17.7164 1335.98C-19.1302 1336.77 -20.702 1337.24 -22.3183 1337.35" stroke="black" stroke-width="2.7" stroke-linecap="round" stroke-linejoin="round"/>
</g>
<g clip-path="url(#clip35_48_14658)">
<path d="M794.436 1317.47C792.202 1309.14 787.548 1301.65 781.06 1295.96C774.572 1290.27 766.543 1286.64 757.987 1285.51C749.432 1284.38 740.735 1285.82 732.995 1289.64C725.256 1293.45 718.822 1299.48 714.508 1306.95C710.193 1314.42 708.191 1323.01 708.756 1331.62C709.32 1340.23 712.425 1348.48 717.678 1355.33C722.931 1362.17 730.097 1367.31 738.268 1370.08C746.439 1372.85 755.249 1373.14 763.585 1370.91C761.898 1368.22 760.976 1365.13 760.917 1361.95C760.859 1358.78 761.666 1355.65 763.252 1352.91C764.839 1350.16 767.144 1347.89 769.921 1346.36C772.697 1344.82 775.84 1344.07 779.01 1344.19C777.324 1341.5 776.401 1338.41 776.343 1335.24C776.284 1332.06 777.092 1328.94 778.678 1326.19C780.264 1323.44 782.57 1321.18 785.346 1319.64C788.123 1318.11 791.265 1317.36 794.436 1317.47Z" stroke="black" stroke-width="2.7" stroke-linecap="round" stroke-linejoin="round"/>
<path d="M763.09 1310.06L763.048 1310.07" stroke="black" stroke-width="2.7" stroke-linecap="round" stroke-linejoin="round"/>
<path d="M742.059 1349.58L742.017 1349.59" stroke="black" stroke-width="2.7" stroke-linecap="round" stroke-linejoin="round"/>
<path d="M752.292 1328.77L752.251 1328.78" stroke="black" stroke-width="2.7" stroke-linecap="round" stroke-linejoin="round"/>
<path d="M730.092 1330.2L730.05 1330.21" stroke="black" stroke-width="2.7" stroke-linecap="round" stroke-linejoin="round"/>
<path d="M738.218 1309.95L738.176 1309.96" stroke="black" stroke-width="2.7" stroke-linecap="round" stroke-linejoin="round"/>
</g>
<g clip-path="url(#clip36_48_14658)">
<path d="M162.955 1285.22L142.889 1264.45C136.329 1257.67 144.981 1242.25 154.334 1244.62L182.456 1251.63C200.566 1256.17 176.192 1298.89 162.955 1285.22Z" stroke="black" stroke-width="2.7" stroke-linecap="round" stroke-linejoin="round"/>
<path d="M141.079 1264.43L132.557 1271.24C129.82 1273.32 128.248 1275.55 129.152 1278.92L133.104 1293.67C135.035 1300.88 138.034 1303.64 146.463 1301.39C153.928 1299.01 160.328 1294.1 164.56 1287.5" stroke="black" stroke-width="2.7" stroke-linecap="round" stroke-linejoin="round"/>
<path d="M129.152 1278.92C122.62 1280.67 112.023 1282.43 114.553 1291.87C116.811 1300.3 126.521 1299.95 134.233 1297.89" stroke="black" stroke-width="2.7" stroke-linecap="round" stroke-linejoin="round"/>
<path d="M153.419 1243.06L155.048 1232.28C155.488 1228.87 156.631 1226.39 160.003 1225.49L174.753 1221.54C181.96 1219.6 185.853 1220.82 188.112 1229.25C189.784 1236.9 188.732 1244.9 185.137 1251.86" stroke="black" stroke-width="2.7" stroke-linecap="round" stroke-linejoin="round"/>
<path d="M160.003 1225.49C158.252 1218.96 154.474 1208.9 163.914 1206.37C172.343 1204.11 176.901 1212.69 178.967 1220.41" stroke="black" stroke-width="2.7" stroke-linecap="round" stroke-linejoin="round"/>
</g>
<g clip-path="url(#clip37_48_14658)">
<path d="M101.634 1017.77C106.779 1026.01 107.838 1035.53 103.435 1043.03C96.4542 1055.24 78.029 1057.79 62.4145 1048.74C46.7578 1039.7 39.7588 1022.51 46.7929 1010.33C51.1429 1002.79 59.8732 998.963 69.6146 999.244C69.0463 1005.72 73.2117 1013.01 80.5858 1017.26C87.9599 1021.52 96.3098 1021.5 101.634 1017.77Z" stroke="black" stroke-width="2.7" stroke-linecap="round" stroke-linejoin="round"/>
<path d="M107.22 1035.24L118.762 1041.9C119.846 1040.68 121.193 1039.71 122.701 1039.08C124.209 1038.44 125.841 1038.16 127.476 1038.24C129.111 1038.32 130.706 1038.77 132.143 1039.55C133.581 1040.33 134.824 1041.43 135.781 1042.75C136.738 1044.08 137.384 1045.61 137.67 1047.22C137.957 1048.83 137.878 1050.49 137.438 1052.06C136.998 1053.64 136.209 1055.1 135.13 1056.33C134.05 1057.56 132.708 1058.53 131.202 1059.17C131.456 1061.18 131.141 1063.23 130.293 1065.07C129.445 1066.91 128.097 1068.48 126.403 1069.6C124.709 1070.72 122.736 1071.34 120.707 1071.39C118.679 1071.44 116.676 1070.92 114.925 1069.9C112.754 1068.64 111.082 1066.68 110.19 1064.33C109.299 1061.99 109.243 1059.41 110.031 1057.03L98.489 1050.36" stroke="black" stroke-width="2.7" stroke-linecap="round" stroke-linejoin="round"/>
</g>
</g>
</g>
<defs>
<filter id="filter0_f_48_14658" x="-1151.62" y="-1602.45" width="3510.56" height="2660.96" filterUnits="userSpaceOnUse" color-interpolation-filters="sRGB">
<feFlood flood-opacity="0" result="BackgroundImageFix"/>
<feBlend mode="normal" in="SourceGraphic" in2="BackgroundImageFix" result="shape"/>
<feGaussianBlur stdDeviation="337.5" result="effect1_foregroundBlur_48_14658"/>
</filter>
<clipPath id="clip0_48_14658">
<rect width="1080" height="1350" fill="white"/>
</clipPath>
<clipPath id="clip1_48_14658">
<rect width="104.712" height="104.712" fill="white" transform="translate(903.806 646.777) rotate(-105)"/>
</clipPath>
<clipPath id="clip2_48_14658">
<rect width="104.712" height="104.712" fill="white" transform="translate(1041.63 31.6792) rotate(75)"/>
</clipPath>
<clipPath id="clip3_48_14658">
<rect width="104.712" height="104.712" fill="white" transform="translate(786.367 208.486) rotate(-105)"/>
</clipPath>
<clipPath id="clip4_48_14658">
<rect width="104.712" height="104.712" fill="white" transform="translate(1100.35 250.828) rotate(75)"/>
</clipPath>
<clipPath id="clip5_48_14658">
<rect width="104.712" height="104.712" fill="white" transform="translate(1159.07 469.974) rotate(75)"/>
</clipPath>
<clipPath id="clip6_48_14658">
<rect width="104.712" height="104.712" fill="white" transform="translate(722.59 695.334) rotate(-105)"/>
</clipPath>
<clipPath id="clip7_48_14658">
<rect width="104.712" height="104.712" fill="white" transform="translate(663.869 476.188) rotate(-105)"/>
</clipPath>
<clipPath id="clip8_48_14658">
<rect width="104.712" height="104.712" fill="white" transform="translate(605.149 257.042) rotate(-105)"/>
</clipPath>
<clipPath id="clip9_48_14658">
<rect width="104.712" height="104.712" fill="white" transform="translate(546.429 37.8926) rotate(-105)"/>
</clipPath>
<clipPath id="clip10_48_14658">
<rect width="104.712" height="104.712" fill="white" transform="translate(178.938 841.005) rotate(-105)"/>
</clipPath>
<clipPath id="clip11_48_14658">
<rect width="104.712" height="104.712" fill="white" transform="translate(316.757 225.907) rotate(75)"/>
</clipPath>
<clipPath id="clip12_48_14658">
<rect width="104.712" height="104.712" fill="white" transform="translate(61.4976 402.714) rotate(-105)"/>
</clipPath>
<clipPath id="clip13_48_14658">
<rect width="104.712" height="104.712" fill="white" transform="translate(375.478 445.055) rotate(75)"/>
</clipPath>
<clipPath id="clip14_48_14658">
<rect width="104.712" height="104.712" fill="white" transform="translate(2.77734 183.564) rotate(-105)"/>
</clipPath>
<clipPath id="clip15_48_14658">
<rect width="104.712" height="104.712" fill="white" transform="translate(434.198 664.202) rotate(75)"/>
</clipPath>
<clipPath id="clip16_48_14658">
<rect width="104.712" height="104.712" fill="white" transform="translate(-2.2793 889.561) rotate(-105)"/>
</clipPath>
<clipPath id="clip17_48_14658">
<rect width="104.712" height="104.712" fill="white" transform="translate(439.254 -41.7971) rotate(75)"/>
</clipPath>
<clipPath id="clip18_48_14658">
<rect width="104.712" height="104.712" fill="white" transform="translate(-60.999 670.416) rotate(-105)"/>
</clipPath>
<clipPath id="clip19_48_14658">
<rect width="104.712" height="104.712" fill="white" transform="translate(497.974 177.349) rotate(75)"/>
</clipPath>
<clipPath id="clip20_48_14658">
<rect width="104.712" height="104.712" fill="white" transform="translate(556.695 396.5) rotate(75)"/>
</clipPath>
<clipPath id="clip21_48_14658">
<rect width="104.712" height="104.712" fill="white" transform="translate(615.415 615.645) rotate(75)"/>
</clipPath>
<clipPath id="clip22_48_14658">
<rect width="104.712" height="104.712" fill="white" transform="translate(1077.71 1295.77) rotate(-105)"/>
</clipPath>
<clipPath id="clip23_48_14658">
<rect width="104.712" height="104.712" fill="white" transform="translate(1018.98 1076.63) rotate(-105)"/>
</clipPath>
<clipPath id="clip24_48_14658">
<rect width="104.712" height="104.712" fill="white" transform="translate(960.265 857.483) rotate(-105)"/>
</clipPath>
<clipPath id="clip25_48_14658">
<rect width="104.712" height="104.712" fill="white" transform="translate(896.488 1344.33) rotate(-105)"/>
</clipPath>
<clipPath id="clip26_48_14658">
<rect width="104.712" height="104.712" fill="white" transform="translate(837.768 1125.19) rotate(-105)"/>
</clipPath>
<clipPath id="clip27_48_14658">
<rect width="104.712" height="104.712" fill="white" transform="translate(779.048 906.039) rotate(-105)"/>
</clipPath>
<clipPath id="clip28_48_14658">
<rect width="104.712" height="104.712" fill="white" transform="translate(490.657 874.907) rotate(75)"/>
</clipPath>
<clipPath id="clip29_48_14658">
<rect width="104.712" height="104.712" fill="white" transform="translate(608.097 1313.2) rotate(75)"/>
</clipPath>
<clipPath id="clip30_48_14658">
<rect width="104.712" height="104.712" fill="white" transform="translate(294.117 1270.86) rotate(-105)"/>
</clipPath>
<clipPath id="clip31_48_14658">
<rect width="104.712" height="104.712" fill="white" transform="translate(235.396 1051.71) rotate(-105)"/>
</clipPath>
<clipPath id="clip32_48_14658">
<rect width="104.712" height="104.712" fill="white" transform="translate(671.874 826.35) rotate(75)"/>
</clipPath>
<clipPath id="clip33_48_14658">
<rect width="104.712" height="104.712" fill="white" transform="translate(730.594 1045.5) rotate(75)"/>
</clipPath>
<clipPath id="clip34_48_14658">
<rect width="104.712" height="104.712" fill="white" transform="translate(5.72559 1239.72) rotate(75)"/>
</clipPath>
<clipPath id="clip35_48_14658">
<rect width="104.712" height="104.712" fill="white" transform="translate(789.314 1264.64) rotate(75)"/>
</clipPath>
<clipPath id="clip36_48_14658">
<rect width="104.712" height="104.712" fill="white" transform="translate(112.899 1319.41) rotate(-105)"/>
</clipPath>
<clipPath id="clip37_48_14658">
<rect width="104.712" height="104.712" fill="white" transform="translate(54.1797 1100.27) rotate(-105)"/>
</clipPath>
</defs>
</svg>
