<svg width="32" height="32" viewBox="0 0 32 32" fill="none" xmlns="http://www.w3.org/2000/svg">
<path fill-rule="evenodd" clip-rule="evenodd" d="M14.6699 4.61758L13.0145 10.7007C12.8713 11.2266 13.1725 11.7685 13.6925 11.9209L15.944 12.5811C16.4739 12.7364 16.7746 13.2949 16.6148 13.8267L15.7294 16.7735C15.5609 17.3345 15.9045 17.9176 16.4745 18.0379L19.302 18.6344C19.8704 18.7543 20.2141 19.3348 20.0483 19.8949L19.1674 22.8692C19.0078 23.4081 19.3201 23.971 19.8597 24.1167L25.0425 25.5171C22.6536 29.4086 18.3944 31.9992 13.5379 31.9992C6.06111 31.9992 0 25.859 0 18.2847C0 10.7105 6.06111 4.57031 13.5379 4.57031C13.9191 4.57031 14.2967 4.58628 14.6699 4.61758Z" fill="#FF7D54"/>
<path d="M18.9542 1.75549L17.8491 5.71383C17.6025 6.59716 18.5625 7.29855 19.3178 6.77836C20.4744 5.9818 21.6548 5.14227 22.459 4.5655C22.9771 4.19384 23.0165 3.43899 22.5459 3.00869C22.0205 2.52827 21.344 1.90148 20.7216 1.29972C20.1541 0.75111 19.1664 0.995276 18.9542 1.75549Z" fill="#FF7D54"/>
<path d="M21.4695 11.8506L20.2465 12.5433C19.4522 12.9931 19.6302 14.1669 20.5253 14.3328C21.0235 14.4251 21.5035 14.511 21.9135 14.5829C22.5428 14.6934 23.1053 14.1783 23.0758 13.532C23.065 13.294 23.0544 13.038 23.0454 12.7786C23.0181 11.9892 22.1502 11.4651 21.4695 11.8506Z" fill="#FF7D54"/>
<path d="M25.3359 18.2554L24.5814 19.5777C24.1908 20.2622 24.7029 21.1088 25.4851 21.0556C26.4778 20.988 27.5424 20.9008 28.4798 20.8187C29.4037 20.7377 29.7327 19.4966 29.0219 18.8904C28.7219 18.6346 28.419 18.3634 28.1338 18.0876C27.4741 17.4496 25.7896 17.4604 25.3359 18.2554Z" fill="#FF7D54"/>
</svg>
